<svg xmlns="http://www.w3.org/2000/svg" width="253" height="63" viewBox="0 0 253 63">
  <metadata><?xpacket begin="﻿" id="W5M0MpCehiHzreSzNTczkc9d"?>
<x:xmpmeta xmlns:x="adobe:ns:meta/" x:xmptk="Adobe XMP Core 5.6-c138 79.159824, 2016/09/14-01:09:01        ">
   <rdf:RDF xmlns:rdf="http://www.w3.org/1999/02/22-rdf-syntax-ns#">
      <rdf:Description rdf:about=""/>
   </rdf:RDF>
</x:xmpmeta>
                                                                                                    
                                                                                                    
                                                                                                    
                                                                                                    
                                                                                                    
                                                                                                    
                                                                                                    
                                                                                                    
                                                                                                    
                                                                                                    
                                                                                                    
                                                                                                    
                                                                                                    
                                                                                                    
                                                                                                    
                                                                                                    
                                                                                                    
                                                                                                    
                                                                                                    
                                                                                                    
                           
<?xpacket end="w"?></metadata>
<defs>
    <style>
      .cls-1 {
        fill: #fff;
        fill-rule: evenodd;
      }
    </style>
  </defs>
  <path id="MasterStudy" class="cls-1" d="M2.992,3.011V50.985a3.862,3.862,0,0,0,3.86,3.834H22.436c2.483,0,4.694.316,6.064,2.172,1.37-1.856,3.58-2.172,6.064-2.172H50.149a3.862,3.862,0,0,0,3.86-3.834V3.011H2.992ZM0,0H57V52.543a5.623,5.623,0,0,1-5.614,5.6H34.91c-3.525,0-6.41,1.342-6.41,4.858,0-3.516-2.885-4.858-6.411-4.858H5.613A5.622,5.622,0,0,1,0,52.543V0ZM32.509,32.5H25.656a0.315,0.315,0,0,1-.356-0.355V30.639a0.315,0.315,0,0,1,.356-0.355h1.988V15.551H27.615L21.978,29.515a1.4,1.4,0,0,1-2.61,0L13.731,15.551H13.672V30.283h1.987a0.329,0.329,0,0,1,.386.355v1.508a0.328,0.328,0,0,1-.386.355H8.836a0.328,0.328,0,0,1-.385-0.355V30.639a0.328,0.328,0,0,1,.385-0.355h2.255V13.48H8.836a0.328,0.328,0,0,1-.385-0.355V11.617a0.328,0.328,0,0,1,.385-0.355H13.4A1.4,1.4,0,0,1,14.8,12.268l4.42,10.649,1.394,3.727h0.119q0.831-2.307,1.365-3.669l4.449-10.708a1.418,1.418,0,0,1,1.423-1.006h4.54a0.314,0.314,0,0,1,.356.355v1.508a0.314,0.314,0,0,1-.356.355H30.225v16.8h2.284a0.314,0.314,0,0,1,.356.355v1.508a0.314,0.314,0,0,1-.356.355m1.37,14.119H32.218a0.328,0.328,0,0,1-.385-0.355V39.344a0.34,0.34,0,0,1,.385-0.385h1.869a0.328,0.328,0,0,1,.356.385v0.62a2.85,2.85,0,0,0,.683,1.494,9.163,9.163,0,0,0,1.364,1.524A5.962,5.962,0,0,0,38.315,44a6.99,6.99,0,0,0,2.476.429,5.94,5.94,0,0,0,3.575-.947,3.081,3.081,0,0,0,1.29-2.632,2.229,2.229,0,0,0-.726-1.672,5.216,5.216,0,0,0-1.884-1.109q-1.158-.414-2.567-0.77t-2.817-.812A15,15,0,0,1,35.1,35.4a5.17,5.17,0,0,1-1.884-1.776,4.874,4.874,0,0,1-.726-2.677,5.2,5.2,0,0,1,1.884-4.112A7.469,7.469,0,0,1,39.427,25.2q4,0,5.874,2.336l-0.059-1.833a0.327,0.327,0,0,1,.385-0.354h1.661a0.314,0.314,0,0,1,.356.354v6.45a0.315,0.315,0,0,1-.356.355H45.419a0.314,0.314,0,0,1-.355-0.355V31.327A3.45,3.45,0,0,0,43.7,28.871a5.763,5.763,0,0,0-4.005-1.241,5.022,5.022,0,0,0-3.16.931,2.89,2.89,0,0,0-1.2,2.382,2.41,2.41,0,0,0,.742,1.774A5.324,5.324,0,0,0,38,33.9a26.908,26.908,0,0,0,2.61.814q1.425,0.368,2.848.813a15.578,15.578,0,0,1,2.611,1.065A5.264,5.264,0,0,1,48,38.294a4.411,4.411,0,0,1,.742,2.559,5.523,5.523,0,0,1-1.87,4.289A8.084,8.084,0,0,1,41.3,46.827a8.477,8.477,0,0,1-4.509-1.094,7.759,7.759,0,0,1-2.581-2.366l0.029,2.9a0.314,0.314,0,0,1-.356.355M80.369,38V28.8l4.094,6.256h0.092l4.117-6.3V38h4.439V21.9H88.4l-3.841,6.233L80.714,21.9H76V38h4.37ZM99.4,38l1.15-2.875h6.21L107.936,38h4.784l-6.854-16.215h-4.3L94.711,38H99.4Zm4.278-10.925,1.794,4.577h-3.611Zm21.381,9.8a4.633,4.633,0,0,0,1.771-3.841,3.846,3.846,0,0,0-1.484-3.277,11.883,11.883,0,0,0-4.519-1.782,9.164,9.164,0,0,1-2.22-.69,0.977,0.977,0,0,1-.563-0.874,0.923,0.923,0,0,1,.414-0.782,2.028,2.028,0,0,1,1.2-.3,7.794,7.794,0,0,1,4.508,1.587l2.231-3.151a10.254,10.254,0,0,0-6.624-2.139,6.783,6.783,0,0,0-4.543,1.438,5.023,5.023,0,0,0-1.253,5.808,3.55,3.55,0,0,0,1.345,1.438,9.428,9.428,0,0,0,1.863.9,24.562,24.562,0,0,0,2.427.679,8.416,8.416,0,0,1,2.162.7,0.973,0.973,0,0,1,.552.84q0,1.15-1.84,1.15a8.193,8.193,0,0,1-5.221-1.932l-2.484,2.967a10.907,10.907,0,0,0,7.544,2.668A7.417,7.417,0,0,0,125.062,36.873ZM136.394,38V25.81h4.83V21.9H127.1v3.91h4.83V38h4.462Zm19.669,0v-3.8h-8.648V31.652h7.728V28.133h-7.728V25.7h8.533V21.9H143V38h13.064Zm6.4,0V33.124h1.955L167.659,38h5.152l-3.841-5.612a4.985,4.985,0,0,0,3.312-4.945,5.159,5.159,0,0,0-1.426-3.818,7.132,7.132,0,0,0-5.244-1.725H158V38h4.462Zm0-12.236h2.921a2.879,2.879,0,0,1,1.782.483,1.683,1.683,0,0,1,.633,1.426,1.754,1.754,0,0,1-.633,1.438,2.7,2.7,0,0,1-1.759.518h-2.944V25.764Zm24.865,11.213a4.047,4.047,0,0,0,1.541-3.3,3.651,3.651,0,0,0-1.254-2.933,9.238,9.238,0,0,0-3.99-1.668,9.556,9.556,0,0,1-3.462-1.242,2.241,2.241,0,0,1-.908-1.886,2.32,2.32,0,0,1,.943-1.9,3.885,3.885,0,0,1,2.484-.747,7.2,7.2,0,0,1,4.646,1.748l1.058-1.4a8.779,8.779,0,0,0-5.658-1.978,5.74,5.74,0,0,0-3.795,1.242,3.92,3.92,0,0,0-1.5,3.151,3.709,3.709,0,0,0,1.265,3.013,9.788,9.788,0,0,0,4.14,1.679,8.554,8.554,0,0,1,3.312,1.2,2.248,2.248,0,0,1,.874,1.863,2.432,2.432,0,0,1-.989,2.013,4.109,4.109,0,0,1-2.6.77,7.438,7.438,0,0,1-2.933-.552,9.291,9.291,0,0,1-2.587-1.725l-1.127,1.334a9.575,9.575,0,0,0,6.578,2.576A6.066,6.066,0,0,0,187.326,36.977ZM197.945,38V23.579h5.405V21.9H190.7v1.679h5.405V38h1.84Zm19.244-1.587a7.215,7.215,0,0,0,1.817-5.29V21.9h-1.817v9.361a5.533,5.533,0,0,1-1.288,3.956,5.354,5.354,0,0,1-7.188-.057,5.72,5.72,0,0,1-1.3-4.014V21.9H205.6v9.361a7.01,7.01,0,0,0,1.817,5.164A7.429,7.429,0,0,0,217.189,36.413ZM228.439,38a8.533,8.533,0,0,0,6.152-2.3,7.627,7.627,0,0,0,2.4-5.75,7.637,7.637,0,0,0-2.392-5.761,8.55,8.55,0,0,0-6.164-2.289H222.85V38h5.589Zm-3.772-14.421h3.772a6.579,6.579,0,0,1,4.83,1.817,6.136,6.136,0,0,1,1.84,4.554,6.147,6.147,0,0,1-1.829,4.566,6.588,6.588,0,0,1-4.841,1.805h-3.772V23.579ZM245.727,38V31.606L252.42,21.9H250.3l-5.474,8.05L239.4,21.9h-2.208l6.693,9.729V38h1.84Z"/>
</svg>
